<svg xmlns="http://www.w3.org/2000/svg" viewBox="0 0 185 50" fill="none">
  <circle cx="25" cy="25" r="20" fill="#E31E24" />
  <circle cx="25" cy="25" r="16" fill="url(#bandhan-grad-file-2)" />
  <path d="M25 12 C29 12 32 18 32 25 C32 32 28 37 25 37 C22 37 18 32 18 25 C18 18 21 12 25 12 Z" fill="#FFF200" />
  <path d="M25 16 C27 16 29 20 29 25 C29 30 27 34 25 34 C23 34 21 30 21 25 C21 20 23 16 25 16 Z" fill="#FFFFFF" />
  
  <defs>
    <linearGradient id="bandhan-grad-file-2" x1="0" y1="0" x2="1" y2="1">
      <stop offset="0%" stopColor="#FFC60B" />
      <stop offset="100%" stopColor="#E31E24" />
    </linearGradient>
  </defs>

  <text x="54" y="24" fill="#002855" fontSize="15" fontWeight="900" fontFamily="sans-serif">Bandhan</text>
  <text x="54" y="39" fill="#002855" fontSize="13" fontWeight="500" fontFamily="sans-serif">Mutual Fund</text>
</svg>
